<svg width="24" height="24" viewBox="0 0 24 24" fill="none" xmlns="http://www.w3.org/2000/svg">
<path d="M23.8475 11.5332C23.6331 11.2399 18.5245 4.35165 11.9999 4.35165C5.47529 4.35165 0.366469 11.2399 0.152297 11.5329C-0.0507657 11.8112 -0.0507657 12.1886 0.152297 12.4668C0.366469 12.7601 5.47529 19.6484 11.9999 19.6484C18.5245 19.6484 23.6331 12.7601 23.8475 12.467C24.0508 12.1888 24.0508 11.8112 23.8475 11.5332ZM11.9999 18.0659C7.19383 18.0659 3.03127 13.4941 1.79907 11.9995C3.02968 10.5035 7.18351 5.93406 11.9999 5.93406C16.8057 5.93406 20.968 10.5051 22.2007 12.0005C20.9701 13.4964 16.8163 18.0659 11.9999 18.0659Z" fill="#C4C4C4"/>
<path d="M11.9999 7.25275C9.38228 7.25275 7.25261 9.38242 7.25261 12C7.25261 14.6176 9.38228 16.7473 11.9999 16.7473C14.6175 16.7473 16.7472 14.6176 16.7472 12C16.7472 9.38242 14.6175 7.25275 11.9999 7.25275ZM11.9999 15.1648C10.2547 15.1648 8.83507 13.7451 8.83507 12C8.83507 10.2549 10.2548 8.8352 11.9999 8.8352C13.745 8.8352 15.1647 10.2549 15.1647 12C15.1647 13.7451 13.745 15.1648 11.9999 15.1648Z" fill="#C4C4C4"/>
</svg>
