<svg width="24" height="24" viewBox="0 0 24 24" fill="none" xmlns="http://www.w3.org/2000/svg">
<path d="M12 13.5182C4.7889 13.5182 0.817505 16.9296 0.817505 23.1241C0.817505 23.6079 1.20961 24 1.69341 24H22.3066C22.7903 24 23.1825 23.6079 23.1825 23.1241C23.1825 16.93 19.2111 13.5182 12 13.5182ZM2.60119 22.2482C2.94572 17.6167 6.10336 15.2701 12 15.2701C17.8966 15.2701 21.0543 17.6167 21.3991 22.2482H2.60119Z" fill="black"/>
<path d="M12 0C8.6876 0 6.18982 2.54803 6.18982 5.92673C6.18982 9.40439 8.79626 12.2333 12 12.2333C15.2038 12.2333 17.8102 9.40439 17.8102 5.92702C17.8102 2.54803 15.3125 0 12 0ZM12 10.4818C9.76207 10.4818 7.94163 8.43853 7.94163 5.92702C7.94163 3.50775 9.6485 1.75181 12 1.75181C14.3139 1.75181 16.0584 3.54656 16.0584 5.92702C16.0584 8.43853 14.238 10.4818 12 10.4818Z" fill="black"/>
</svg>
