<svg width="122" height="40" viewBox="0 0 122 40" fill="none" xmlns="http://www.w3.org/2000/svg">
<path d="M0.96 15.696C0.96 15.104 1.192 14.584 1.656 14.136C2.12 13.672 2.704 13.44 3.408 13.44C4.032 13.44 4.56 13.672 4.992 14.136C5.44 14.584 5.664 15.104 5.664 15.696C5.664 16.368 5.448 16.944 5.016 17.424C4.6 17.904 4.064 18.144 3.408 18.144C2.688 18.144 2.096 17.912 1.632 17.448C1.184 16.968 0.96 16.384 0.96 15.696ZM19.5928 7.56L12.1528 18H8.79281V1.2H12.6328V11.64L20.0728 1.2H23.4328V18H19.5928V7.56ZM41.5538 18H37.7137V11.232H31.5938V18H27.7538V1.2H31.5938V7.632H37.7137V1.2H41.5538V18ZM45.8709 17.952V1.248C47.7429 1.152 49.4389 1.104 50.9589 1.104C52.8149 1.104 54.2149 1.48 55.1589 2.232C56.1189 2.968 56.5989 3.984 56.5989 5.28C56.5989 6.928 55.9589 8.176 54.6789 9.024V9.072C55.3989 9.344 55.9749 9.808 56.4069 10.464C56.8549 11.12 57.0789 11.936 57.0789 12.912C57.0789 14.592 56.4869 15.88 55.3029 16.776C54.1349 17.656 52.5989 18.096 50.6949 18.096C48.4709 18.096 46.8629 18.048 45.8709 17.952ZM51.1989 11.208H49.7109V14.352C50.0629 14.448 50.4949 14.496 51.0069 14.496C52.4949 14.496 53.2389 13.904 53.2389 12.72C53.2389 11.712 52.5589 11.208 51.1989 11.208ZM50.9109 4.704C50.6229 4.704 50.2229 4.736 49.7109 4.8V7.848H50.9829C52.1669 7.848 52.7589 7.304 52.7589 6.216C52.7589 5.752 52.5829 5.384 52.2309 5.112C51.8789 4.84 51.4389 4.704 50.9109 4.704ZM70.8834 18H60.6834V1.2H70.6434V4.8H64.5234V7.752H69.9234V11.352H64.5234V14.4H70.8834V18ZM86.1041 13.464L87.5681 16.344C87.0561 16.92 86.2961 17.392 85.2881 17.76C84.2961 18.112 83.2321 18.288 82.0961 18.288C79.4881 18.288 77.3681 17.496 75.7361 15.912C74.1041 14.296 73.2881 12.192 73.2881 9.6C73.2881 7.072 74.0561 4.992 75.5921 3.36C77.1281 1.728 79.2881 0.912 82.0721 0.912C83.1281 0.912 84.1121 1.072 85.0241 1.392C85.9361 1.712 86.6641 2.136 87.2081 2.664L85.5041 5.544C84.3841 4.856 83.2401 4.512 82.0721 4.512C80.7121 4.512 79.5841 4.96 78.6881 5.856C77.8081 6.736 77.3681 7.984 77.3681 9.6C77.3681 11.072 77.8401 12.296 78.7841 13.272C79.7281 14.216 80.9521 14.688 82.4561 14.688C83.8001 14.688 85.0161 14.28 86.1041 13.464ZM93.3347 4.8H88.2947V1.2H102.215V4.8H97.1747V18H93.3347V4.8ZM15.96 37H12.12V30.232H6V37H2.16V20.2H6V26.632H12.12V20.2H15.96V37ZM19.0772 28.6C19.0772 26.12 19.9012 24.056 21.5492 22.408C23.2132 20.744 25.3652 19.912 28.0052 19.912C30.6292 19.912 32.7652 20.704 34.4132 22.288C36.0932 23.872 36.9332 25.976 36.9332 28.6C36.9332 31.128 36.0852 33.208 34.3892 34.84C32.7092 36.472 30.5812 37.288 28.0052 37.288C25.3972 37.288 23.2532 36.496 21.5732 34.912C19.9092 33.328 19.0772 31.224 19.0772 28.6ZM23.1572 28.6C23.1572 30.024 23.6292 31.232 24.5732 32.224C25.5012 33.2 26.6452 33.688 28.0052 33.688C29.5412 33.688 30.7332 33.216 31.5812 32.272C32.4292 31.296 32.8532 30.072 32.8532 28.6C32.8532 27.08 32.3892 25.856 31.4612 24.928C30.5172 23.984 29.3652 23.512 28.0052 23.512C26.5972 23.512 25.4372 23.984 24.5252 24.928C23.6132 25.872 23.1572 27.096 23.1572 28.6ZM40.0584 36.952V20.248C41.9304 20.152 43.6264 20.104 45.1464 20.104C47.0024 20.104 48.4024 20.48 49.3464 21.232C50.3064 21.968 50.7864 22.984 50.7864 24.28C50.7864 25.928 50.1464 27.176 48.8664 28.024V28.072C49.5864 28.344 50.1624 28.808 50.5944 29.464C51.0424 30.12 51.2664 30.936 51.2664 31.912C51.2664 33.592 50.6744 34.88 49.4904 35.776C48.3224 36.656 46.7864 37.096 44.8824 37.096C42.6584 37.096 41.0504 37.048 40.0584 36.952ZM45.3864 30.208H43.8984V33.352C44.2504 33.448 44.6824 33.496 45.1944 33.496C46.6824 33.496 47.4264 32.904 47.4264 31.72C47.4264 30.712 46.7464 30.208 45.3864 30.208ZM45.0984 23.704C44.8104 23.704 44.4104 23.736 43.8984 23.8V26.848H45.1704C46.3544 26.848 46.9464 26.304 46.9464 25.216C46.9464 24.752 46.7704 24.384 46.4184 24.112C46.0664 23.84 45.6264 23.704 45.0984 23.704ZM53.6709 28.6C53.6709 26.12 54.4949 24.056 56.1429 22.408C57.8069 20.744 59.9589 19.912 62.5989 19.912C65.2229 19.912 67.3589 20.704 69.0069 22.288C70.6869 23.872 71.5269 25.976 71.5269 28.6C71.5269 31.128 70.6789 33.208 68.9829 34.84C67.3029 36.472 65.1749 37.288 62.5989 37.288C59.9909 37.288 57.8469 36.496 56.1669 34.912C54.5029 33.328 53.6709 31.224 53.6709 28.6ZM57.7509 28.6C57.7509 30.024 58.2229 31.232 59.1669 32.224C60.0949 33.2 61.2389 33.688 62.5989 33.688C64.1349 33.688 65.3269 33.216 66.1749 32.272C67.0229 31.296 67.4469 30.072 67.4469 28.6C67.4469 27.08 66.9829 25.856 66.0549 24.928C65.1109 23.984 63.9589 23.512 62.5989 23.512C61.1909 23.512 60.0309 23.984 59.1189 24.928C58.2069 25.872 57.7509 27.096 57.7509 28.6ZM86.2682 32.464L87.7322 35.344C87.2202 35.92 86.4602 36.392 85.4522 36.76C84.4602 37.112 83.3962 37.288 82.2602 37.288C79.6522 37.288 77.5322 36.496 75.9002 34.912C74.2682 33.296 73.4522 31.192 73.4522 28.6C73.4522 26.072 74.2202 23.992 75.7562 22.36C77.2922 20.728 79.4522 19.912 82.2362 19.912C83.2922 19.912 84.2762 20.072 85.1882 20.392C86.1002 20.712 86.8282 21.136 87.3722 21.664L85.6682 24.544C84.5482 23.856 83.4042 23.512 82.2362 23.512C80.8762 23.512 79.7482 23.96 78.8522 24.856C77.9722 25.736 77.5322 26.984 77.5322 28.6C77.5322 30.072 78.0042 31.296 78.9482 32.272C79.8922 33.216 81.1162 33.688 82.6202 33.688C83.9642 33.688 85.1802 33.28 86.2682 32.464ZM93.4988 23.8H88.4588V20.2H102.379V23.8H97.3388V37H93.4988V23.8ZM115.569 26.56L108.129 37H104.769V20.2H108.609V30.64L116.049 20.2H119.409V37H115.569V26.56Z" fill="#333333"/>
</svg>
